<svg width="174" height="126" viewBox="0 0 174 126" fill="none" xmlns="http://www.w3.org/2000/svg">
<path d="M48 76.9351V38.1564C48 36.2864 48.7326 34.4931 50.0366 33.1708C51.3407 31.8485 53.1093 31.1057 54.9535 31.1057V31.1057C56.7977 31.1057 58.5663 31.8485 59.8703 33.1708C61.1744 34.4931 61.907 36.2864 61.907 38.1564V62.8337" stroke="black" stroke-width="4" stroke-linecap="round" stroke-linejoin="round"/>
<path d="M61.9072 63.0657V24.287C61.9072 22.417 62.6717 20.6237 64.0324 19.3014C65.3931 17.9792 67.2387 17.2363 69.163 17.2363C71.0874 17.2363 72.9329 17.9792 74.2937 19.3014C75.6544 20.6237 76.4189 22.417 76.4189 24.287V59.5404" stroke="black" stroke-width="4" stroke-linecap="round" stroke-linejoin="round"/>
<path d="M90.3262 59.629V27.8646C90.3262 26.0054 91.0906 24.2223 92.4514 22.9077C93.8121 21.5931 95.6576 20.8545 97.582 20.8545V20.8545C99.5063 20.8545 101.352 21.5931 102.713 22.9077C104.073 24.2223 104.838 26.0054 104.838 27.8646V76.9352" stroke="black" stroke-width="4" stroke-linecap="round" stroke-linejoin="round"/>
<path d="M76.418 59.4475V17.0639C76.418 15.1905 77.1506 13.3937 78.4546 12.069C79.7586 10.7442 81.5273 10 83.3715 10C85.2156 10 86.9843 10.7442 88.2883 12.069C89.5923 13.3937 90.3249 15.1905 90.3249 17.0639V59.4475" stroke="black" stroke-width="4" stroke-linecap="round" stroke-linejoin="round"/>
<path d="M48 77.096C48 103.135 62.1802 116.132 81.678 116.132C101.176 116.132 109.088 107.349 113.583 96.6138L125.262 64.6756C126.738 60.6722 126.069 56.9594 122.632 55.0054C119.193 53.0492 114.676 54.0561 112.815 57.5959L104.721 77.096" stroke="black" stroke-width="4" stroke-linecap="round" stroke-linejoin="round"/>
<path fill-rule="evenodd" clip-rule="evenodd" d="M85.5244 80.5057C85.7141 80.5339 85.9055 80.5481 86.0973 80.5481C87.5027 80.5481 88.8683 79.8062 89.9451 78.4588C90.9035 77.2593 91.5695 75.6447 91.8229 73.9101C92.422 69.7838 90.5967 66.2189 87.6674 65.7875C87.4777 65.7593 87.2863 65.7451 87.0945 65.7451C85.691 65.7469 84.3227 66.4879 83.2476 67.8326C82.2883 69.0312 81.6187 70.6476 81.3689 72.3849C80.7698 76.5112 82.5951 80.0761 85.5244 80.5057ZM74.6078 80.5482C73.2033 80.5482 71.8368 79.8063 70.7599 78.4589C69.8007 77.2594 69.131 75.6448 68.8812 73.912C68.2822 69.7839 70.1074 66.219 73.0368 65.7894C73.2264 65.7612 73.4179 65.747 73.6096 65.747C75.0132 65.747 76.3815 66.488 77.4566 67.8327C78.4158 69.0313 79.0855 70.6476 79.3362 72.3832C79.9352 76.5113 78.11 80.0762 75.1806 80.5058C74.991 80.534 74.7995 80.5482 74.6078 80.5482ZM101.563 77.9083C101.061 76.7179 100.227 75.8596 99.15 75.4273L99.1355 75.4219C98.6453 75.2304 98.1235 75.1324 97.597 75.1331H97.5391C95.074 75.1701 92.5574 77.2594 91.2778 80.3324C90.3393 82.5797 90.2316 84.9966 90.99 86.798C91.4913 87.9893 92.3275 88.8476 93.4089 89.2799L93.4207 89.2844C93.9109 89.4757 94.4327 89.5737 94.9591 89.5732C97.4477 89.5732 99.9907 87.4839 101.294 84.3703C102.22 82.1257 102.323 79.7106 101.563 77.9083ZM91.7138 91.1626C90.2922 90.3107 88.9483 89.5047 88.0705 88.0571C85.6488 84.05 84.1864 81.6312 80.3521 81.6312C76.5179 81.6312 75.0518 84.05 72.6247 88.0571C71.746 89.505 70.4014 90.3117 68.9768 91.1663L68.9768 91.1663L68.9723 91.169L68.9722 91.1691C67.337 92.1492 65.6475 93.1618 64.9182 95.1544C64.6346 95.8728 64.4918 96.6387 64.4974 97.4107C64.4974 100.655 67.0312 103.295 70.1443 103.295C71.7506 103.295 73.46 102.74 75.269 102.153C77.0083 101.588 78.8065 101.004 80.3612 101.004C81.9159 101.004 83.7095 101.588 85.4425 102.153L85.4913 102.168L85.4913 102.168C87.2786 102.746 88.9637 103.291 90.56 103.291C93.6685 103.291 96.1979 100.652 96.1979 97.4071C96.2005 96.6345 96.0545 95.8686 95.768 95.1508C95.0388 93.1566 93.3487 92.1431 91.7146 91.1631L91.7138 91.1626ZM67.2965 89.2799L67.2838 89.2844C66.7945 89.4757 66.2736 89.5736 65.7481 89.5732C63.2622 89.5732 60.7202 87.483 59.4234 84.373C58.4867 82.1257 58.3799 79.7115 59.1383 77.9065C59.6387 76.7161 60.474 75.8551 61.5509 75.4264L61.5636 75.4219C62.0537 75.2303 62.5756 75.1323 63.102 75.1331C65.5879 75.1331 68.1299 77.2233 69.4267 80.3333C70.3633 82.5806 70.4701 84.9948 69.7118 86.7998C69.2113 87.9902 68.3761 88.8476 67.2965 89.2799Z" fill="#FFC41E"/>
</svg>
