<svg width="174" height="146" viewBox="0 0 174 146" fill="none" xmlns="http://www.w3.org/2000/svg">
<path d="M159.914 64.7083L88.918 7.93759" stroke="#242424" stroke-width="5" stroke-linecap="round" stroke-linejoin="round"/>
<path d="M17.9229 64.7083L88.9192 7.93759" stroke="#242424" stroke-width="5" stroke-linecap="round" stroke-linejoin="round"/>
<path d="M39.2207 142.768V50.5157" stroke="#242424" stroke-width="5" stroke-linecap="round"/>
<path d="M138.616 142.768V50.5157" stroke="#242424" stroke-width="5" stroke-linecap="round"/>
<path d="M39.2207 142.768H138.616" stroke="#242424" stroke-width="5" stroke-linecap="round"/>
<path d="M89.4299 82.0343L107.949 88.498V114.866C107.949 115.378 107.741 115.869 107.37 116.231C107 116.593 106.497 116.797 105.973 116.797H98.0683C97.5442 116.797 97.0415 116.593 96.6709 116.231C96.3003 115.869 96.0921 115.378 96.0921 114.866V101.347H76.3302V114.866C76.3302 115.378 76.122 115.869 75.7514 116.231C75.3808 116.593 74.8782 116.797 74.354 116.797H66.4493C65.9252 116.797 65.4225 116.593 65.0519 116.231C64.6813 115.869 64.4731 115.378 64.4731 114.866V89.046C59.8834 87.4466 56.5684 83.2003 56.5684 78.1718C56.5684 77.1474 56.9848 76.1649 57.726 75.4405C58.4672 74.7162 59.4725 74.3092 60.5207 74.3092C61.569 74.3092 62.5743 74.7162 63.3155 75.4405C64.0567 76.1649 64.4731 77.1474 64.4731 78.1718C64.4751 79.1956 64.8921 80.1769 65.6329 80.9009C66.3737 81.6248 67.3778 82.0324 68.4255 82.0343H89.4299ZM119.806 68.5155V72.378C119.806 74.4268 118.973 76.3917 117.491 77.8404C116.009 79.2891 113.998 80.103 111.902 80.103H107.949V84.3977L92.1397 78.8803V60.7904C92.1397 59.0704 94.2666 58.2086 95.5128 59.4253L98.8822 62.7217H105.506C106.854 62.7217 108.44 63.6777 109.041 64.8569L109.925 66.5842H117.83C118.354 66.5842 118.857 66.7877 119.228 67.1499C119.598 67.512 119.806 68.0033 119.806 68.5155ZM105.973 68.5155C105.973 68.1335 105.857 67.7601 105.64 67.4425C105.423 67.1249 105.114 66.8774 104.753 66.7312C104.392 66.585 103.995 66.5468 103.611 66.6213C103.228 66.6958 102.876 66.8798 102.599 67.1499C102.323 67.4199 102.135 67.7641 102.059 68.1387C101.982 68.5133 102.021 68.9016 102.171 69.2545C102.321 69.6074 102.574 69.909 102.899 70.1212C103.224 70.3335 103.606 70.4467 103.997 70.4467C104.521 70.4467 105.024 70.2432 105.394 69.8811C105.765 69.5189 105.973 69.0277 105.973 68.5155Z" fill="#242424"/>
<path d="M75.708 12.7579C74.7268 10.4344 73.312 8.32874 71.5429 6.55898C69.7724 4.78394 67.6849 3.37333 65.394 2.40388C63.0185 1.39462 60.4706 0.87803 57.8983 0.884086C54.2895 0.884086 50.7686 1.89479 47.7088 3.80389C46.9768 4.26057 46.2814 4.76218 45.6226 5.30871C44.9638 4.76218 44.2684 4.26057 43.5364 3.80389C40.4766 1.89479 36.9557 0.884086 33.3469 0.884086C30.7483 0.884086 28.2302 1.39318 25.8512 2.40388C23.5527 3.37715 21.4811 4.77715 19.7023 6.55898C17.9308 8.32675 16.5157 10.4329 15.5372 12.7579C14.5197 15.1761 14 17.7441 14 20.3869C14 22.8799 14.4978 25.4778 15.486 28.1206C16.3131 30.3291 17.499 32.6201 19.0142 34.9334C21.4152 38.5944 24.7165 42.4126 28.8158 46.2832C35.6088 52.6993 42.3359 57.1314 42.6214 57.3111L44.3562 58.4491C45.1248 58.9507 46.113 58.9507 46.8816 58.4491L48.6165 57.3111C48.902 57.1239 55.6218 52.6993 62.4221 46.2832C66.5213 42.4126 69.8227 38.5944 72.2237 34.9334C73.7389 32.6201 74.9321 30.3291 75.7519 28.1206C76.7401 25.4778 77.2379 22.8799 77.2379 20.3869C77.2452 17.7441 76.7255 15.1761 75.708 12.7579Z" fill="#FFC41E"/>
</svg>
