<svg width="30" height="30" viewBox="0 0 30 30" fill="none" xmlns="http://www.w3.org/2000/svg">
<path fill-rule="evenodd" clip-rule="evenodd" d="M15.3638 28.0908C18.7393 28.0908 21.9765 26.7499 24.3634 24.3631C26.7502 21.9763 28.0911 18.7391 28.0911 15.3636C28.0911 11.9881 26.7502 8.75086 24.3634 6.36403C21.9765 3.9772 18.7393 2.6363 15.3638 2.6363C11.9883 2.6363 8.7511 3.9772 6.36427 6.36403C3.97745 8.75086 2.63654 11.9881 2.63654 15.3636C2.63654 18.7391 3.97745 21.9763 6.36427 24.3631C8.7511 26.7499 11.9883 28.0908 15.3638 28.0908ZM15.3638 29.909C19.2215 29.909 22.9212 28.3766 25.649 25.6488C28.3768 22.921 29.9093 19.2213 29.9093 15.3636C29.9093 11.5059 28.3768 7.80618 25.649 5.07838C22.9212 2.35058 19.2215 0.818115 15.3638 0.818115C11.5061 0.818115 7.80643 2.35058 5.07862 5.07838C2.35082 7.80618 0.818359 11.5059 0.818359 15.3636C0.818359 19.2213 2.35082 22.921 5.07862 25.6488C7.80643 28.3766 11.5061 29.909 15.3638 29.909Z" fill="#FFBC00"/>
<path fill-rule="evenodd" clip-rule="evenodd" d="M16.0069 21.4617C16.0916 21.3773 16.1588 21.277 16.2046 21.1665C16.2504 21.0561 16.274 20.9377 16.274 20.8181C16.274 20.6985 16.2504 20.5801 16.2046 20.4697C16.1588 20.3592 16.0916 20.2589 16.0069 20.1745L11.1942 15.3636L16.0069 10.5527C16.0915 10.4681 16.1585 10.3678 16.2043 10.2574C16.25 10.1469 16.2735 10.0286 16.2735 9.90902C16.2735 9.78948 16.25 9.67112 16.2043 9.56069C16.1585 9.45025 16.0915 9.34991 16.0069 9.26538C15.9224 9.18086 15.8221 9.11381 15.7116 9.06807C15.6012 9.02232 15.4828 8.99878 15.3633 8.99878C15.2438 8.99878 15.1254 9.02232 15.015 9.06807C14.9045 9.11381 14.8042 9.18086 14.7197 9.26538L9.26513 14.7199C9.18047 14.8044 9.1133 14.9047 9.06747 15.0151C9.02164 15.1256 8.99805 15.244 8.99805 15.3636C8.99805 15.4831 9.02164 15.6015 9.06747 15.712C9.1133 15.8224 9.18047 15.9228 9.26513 16.0072L14.7197 21.4617C14.8041 21.5464 14.9044 21.6136 15.0149 21.6594C15.1253 21.7052 15.2437 21.7288 15.3633 21.7288C15.4829 21.7288 15.6013 21.7052 15.7117 21.6594C15.8222 21.6136 15.9225 21.5464 16.0069 21.4617Z" fill="#FFBC00"/>
<path fill-rule="evenodd" clip-rule="evenodd" d="M21.7275 15.3637C21.7275 15.1226 21.6317 14.8913 21.4612 14.7209C21.2907 14.5504 21.0595 14.4546 20.8184 14.4546H11.7275C11.4863 14.4546 11.2551 14.5504 11.0846 14.7209C10.9141 14.8913 10.8184 15.1226 10.8184 15.3637C10.8184 15.6048 10.9141 15.836 11.0846 16.0065C11.2551 16.177 11.4863 16.2728 11.7275 16.2728H20.8184C21.0595 16.2728 21.2907 16.177 21.4612 16.0065C21.6317 15.836 21.7275 15.6048 21.7275 15.3637Z" fill="#FFBC00"/>
</svg>
