<svg width="30" height="30" viewBox="0 0 30 30" fill="none" xmlns="http://www.w3.org/2000/svg">
<path fill-rule="evenodd" clip-rule="evenodd" d="M15.3638 28.0908C18.7393 28.0908 21.9765 26.7499 24.3634 24.3631C26.7502 21.9763 28.0911 18.7391 28.0911 15.3636C28.0911 11.9881 26.7502 8.75086 24.3634 6.36403C21.9765 3.9772 18.7393 2.6363 15.3638 2.6363C11.9883 2.6363 8.7511 3.9772 6.36427 6.36403C3.97745 8.75086 2.63654 11.9881 2.63654 15.3636C2.63654 18.7391 3.97745 21.9763 6.36427 24.3631C8.7511 26.7499 11.9883 28.0908 15.3638 28.0908ZM15.3638 29.909C19.2215 29.909 22.9212 28.3766 25.649 25.6488C28.3768 22.921 29.9093 19.2213 29.9093 15.3636C29.9093 11.5059 28.3768 7.80618 25.649 5.07838C22.9212 2.35058 19.2215 0.818115 15.3638 0.818115C11.5061 0.818115 7.80643 2.35058 5.07862 5.07838C2.35082 7.80618 0.818359 11.5059 0.818359 15.3636C0.818359 19.2213 2.35082 22.921 5.07862 25.6488C7.80643 28.3766 11.5061 29.909 15.3638 29.909Z" fill="#FFBC00"/>
<path fill-rule="evenodd" clip-rule="evenodd" d="M14.7202 21.4617C14.6355 21.3773 14.5684 21.277 14.5225 21.1665C14.4767 21.0561 14.4531 20.9377 14.4531 20.8181C14.4531 20.6985 14.4767 20.5801 14.5225 20.4697C14.5684 20.3592 14.6355 20.2589 14.7202 20.1745L19.5329 15.3636L14.7202 10.5527C14.6357 10.4681 14.5686 10.3678 14.5229 10.2574C14.4771 10.1469 14.4536 10.0286 14.4536 9.90902C14.4536 9.78948 14.4771 9.67112 14.5229 9.56069C14.5686 9.45025 14.6357 9.34991 14.7202 9.26538C14.8047 9.18086 14.9051 9.11381 15.0155 9.06807C15.1259 9.02232 15.2443 8.99878 15.3638 8.99878C15.4834 8.99878 15.6017 9.02232 15.7122 9.06807C15.8226 9.11381 15.923 9.18086 16.0075 9.26538L21.462 14.7199C21.5467 14.8044 21.6139 14.9047 21.6597 15.0151C21.7055 15.1256 21.7291 15.244 21.7291 15.3636C21.7291 15.4831 21.7055 15.6015 21.6597 15.712C21.6139 15.8224 21.5467 15.9228 21.462 16.0072L16.0075 21.4617C15.923 21.5464 15.8227 21.6136 15.7123 21.6594C15.6018 21.7052 15.4834 21.7288 15.3638 21.7288C15.2443 21.7288 15.1259 21.7052 15.0154 21.6594C14.905 21.6136 14.8047 21.5464 14.7202 21.4617Z" fill="#FFBC00"/>
<path fill-rule="evenodd" clip-rule="evenodd" d="M9 15.3637C9 15.1226 9.09578 14.8913 9.26627 14.7209C9.43675 14.5504 9.66799 14.4546 9.90909 14.4546H19C19.2411 14.4546 19.4723 14.5504 19.6428 14.7209C19.8133 14.8913 19.9091 15.1226 19.9091 15.3637C19.9091 15.6048 19.8133 15.836 19.6428 16.0065C19.4723 16.177 19.2411 16.2728 19 16.2728H9.90909C9.66799 16.2728 9.43675 16.177 9.26627 16.0065C9.09578 15.836 9 15.6048 9 15.3637Z" fill="#FFBC00"/>
</svg>
